<?xml version="1.0" encoding="utf-8"?>
<!-- Generator: Adobe Illustrator 24.3.0, SVG Export Plug-In . SVG Version: 6.00 Build 0)  -->
<svg version="1.1" id="Capa_1" xmlns="http://www.w3.org/2000/svg" xmlns:xlink="http://www.w3.org/1999/xlink" x="0px" y="0px"
	 viewBox="0 0 800 800" style="enable-background:new 0 0 800 800;" xml:space="preserve">
<style type="text/css">
	.st0{fill:#0B2739;}
</style>
<path class="st0" d="M531.5,752.2H267.6c-38.1,0-68.1-10.1-89.1-29.9c-22-20.8-33.2-51.1-33.2-90.2l0.1-201.5
	c-0.1-11-0.1-15.4-0.1-15.4V415c0-39.1,11.2-69.5,33.2-90.2c21-19.8,51-29.9,89.2-29.9h263.9c38.1,0,68.1,10,89.2,29.8
	c22,20.7,33.5,51,33.9,90v217.7c-0.5,39.1-11.9,69.3-33.9,90C599.6,742.2,569.6,752.2,531.5,752.2z M186.7,414.8
	c0,0.8,0.1,5.4,0.1,15.5v0.2l-0.1,201.6c0,27.3,6.8,47.5,20.2,60.1c13.1,12.3,33.5,18.6,60.8,18.6h263.9c27.2,0,47.7-6.3,60.9-18.7
	c13.5-12.6,20.5-32.9,20.9-60.2V415.1c-0.4-27.3-7.4-47.6-20.9-60.2c-13.2-12.4-33.7-18.6-60.9-18.6h-264
	c-27.2,0-47.7,6.3-60.8,18.6C193.5,367.4,186.7,387.6,186.7,414.8L186.7,414.8z"/>
<path class="st0" d="M245.4,336.1c-11.4,0-20.7-9.3-20.7-20.7V209.1c0-89,77.1-161.3,171.9-161.3h6.8c94.8,0,171.9,72.4,171.9,161.3
	l0,0c0,11.4-9.3,20.7-20.7,20.7s-20.7-9.3-20.7-20.7l0,0c0-66.1-58.6-120-130.5-120h-6.8c-72,0-130.5,53.8-130.5,120v106.3
	C266.1,326.9,256.8,336.1,245.4,336.1L245.4,336.1z M400.2,617.4c-18.6,0-33.5-5.3-44.4-15.8c-11.3-10.9-17.1-26.3-17.1-45.7
	s5.7-34.8,17-45.7c10.8-10.5,25.8-15.8,44.4-15.8s33.6,5.3,44.4,15.8c11.3,10.9,17.1,26.3,17.1,45.7s-5.7,34.8-17.1,45.7
	C433.8,612.1,418.8,617.4,400.2,617.4z M400.2,535.9c-15.4,0-20,4.7-20,20.1c0,15.4,4.7,20,20,20c15.4,0,20.1-4.7,20.1-20
	C420.3,540.6,415.6,535.9,400.2,535.9z"/>
</svg>
